<svg width="100" height="69" viewBox="0 0 100 69" fill="none" xmlns="http://www.w3.org/2000/svg">
<path d="M81.7552 49.8473C79.3117 49.8473 76.9904 50.8043 75.2393 52.5351C73.4881 54.2863 72.5107 56.5669 72.5107 59.0104C72.5107 61.4539 73.4677 63.7345 75.2393 65.4857C77.0108 67.2165 79.3117 68.1735 81.7552 68.1735C86.7644 68.1735 90.8369 64.0603 90.8369 59.0104C90.8369 53.9605 86.7644 49.8473 81.7552 49.8473ZM81.7552 64.101C78.9452 64.101 76.5832 61.7797 76.5832 59.0104C76.5832 56.2411 78.9452 53.9198 81.7552 53.9198C84.5245 53.9198 86.7644 56.2004 86.7644 59.0104C86.7644 61.8204 84.5245 64.101 81.7552 64.101ZM84.1173 19.324C83.7508 18.9778 83.2621 18.7945 82.753 18.7945H72.3071C71.1871 18.7945 70.2708 19.7109 70.2708 20.8308V37.528C70.2708 38.6479 71.1871 39.5642 72.3071 39.5642H88.8821C90.002 39.5642 90.9183 38.6479 90.9183 37.528V26.349C90.9183 25.7789 90.674 25.2291 90.2464 24.8422L84.1173 19.324ZM86.8459 35.4918H74.3433V22.8467H81.9589L86.8459 27.245V35.4918ZM32.0301 49.8473C29.5866 49.8473 27.2653 50.8043 25.5142 52.5351C23.763 54.2863 22.7856 56.5669 22.7856 59.0104C22.7856 61.4539 23.7426 63.7345 25.5142 65.4857C27.2857 67.2165 29.5866 68.1735 32.0301 68.1735C37.0393 68.1735 41.1118 64.0603 41.1118 59.0104C41.1118 53.9605 37.0393 49.8473 32.0301 49.8473ZM32.0301 64.101C29.2201 64.101 26.8581 61.7797 26.8581 59.0104C26.8581 56.2411 29.2201 53.9198 32.0301 53.9198C34.7994 53.9198 37.0393 56.2004 37.0393 59.0104C37.0393 61.8204 34.7994 64.101 32.0301 64.101ZM18.4484 52.3519H14.3555V46.9355C14.3555 45.8155 13.4392 44.8992 12.3193 44.8992C11.1993 44.8992 10.283 45.8155 10.283 46.9355V54.3881C10.283 55.5081 11.1993 56.4244 12.3193 56.4244H18.4484C19.5683 56.4244 20.4846 55.5081 20.4846 54.3881C20.4846 53.2682 19.5683 52.3519 18.4484 52.3519ZM28.7721 41.2543C28.7721 40.1344 27.8558 39.2181 26.7359 39.2181H2.03625C0.91631 39.2181 0 40.1344 0 41.2543C0 42.3743 0.91631 43.2906 2.03625 43.2906H26.7359C27.8558 43.2906 28.7721 42.3946 28.7721 41.2543ZM6.16982 33.9035L30.8695 34.046C31.9894 34.046 32.9057 33.1501 32.9261 32.0301C32.9464 30.8898 32.0301 29.9735 30.9102 29.9735L6.21055 29.831C6.19019 29.831 6.19019 29.831 6.19019 29.831C5.07025 29.831 4.15394 30.7269 4.15394 31.8469C4.13358 32.9872 5.04989 33.9035 6.16982 33.9035ZM10.3238 24.6589H35.0234C36.1434 24.6589 37.0597 23.7426 37.0597 22.6227C37.0597 21.5027 36.1434 20.5864 35.0234 20.5864H10.3238C9.20383 20.5864 8.28752 21.5027 8.28752 22.6227C8.28752 23.7426 9.20383 24.6589 10.3238 24.6589ZM99.2466 21.91L84.6671 9.83506C84.3005 9.52963 83.8526 9.36673 83.3639 9.36673H66.2187V2.03625C66.2187 0.916311 65.3024 0 64.1825 0H12.3193C11.1993 0 10.283 0.916311 10.283 2.03625V16.9416C10.283 18.0615 11.1993 18.9778 12.3193 18.9778C13.4392 18.9778 14.3555 18.0615 14.3555 16.9416V4.07249H62.1666V52.3519H45.4694C44.3494 52.3519 43.4331 53.2682 43.4331 54.3881C43.4331 55.5081 44.3494 56.4244 45.4694 56.4244H70.3319C71.4518 56.4244 72.3682 55.5081 72.3682 54.3881C72.3682 53.2682 71.4518 52.3519 70.3319 52.3519H66.2391V13.4392H82.6512L95.9275 24.4349L95.785 52.3111H93.6673C92.5473 52.3111 91.631 53.2275 91.631 54.3474C91.631 55.4673 92.5473 56.3836 93.6673 56.3836H97.8009C98.9208 56.3836 99.8371 55.4877 99.8371 54.3678L100 23.4983C99.9796 22.8874 99.7149 22.2969 99.2466 21.91Z" fill="#5A6E79"/>
</svg>
