<svg width="100" height="100" viewBox="0 0 100 100" fill="none" xmlns="http://www.w3.org/2000/svg">
<path d="M99.9691 44.2391V44.2383C99.8058 42.6789 98.9986 41.2416 97.755 40.2893L92.0635 35.8538L94.2028 28.7881C94.659 27.2806 94.4698 25.6333 93.6832 24.2678C92.8959 22.9031 91.5653 21.9157 90.0325 21.5567L82.8723 19.8835L81.9583 12.5811C81.7623 11.017 80.92 9.58893 79.6474 8.66486C78.3733 7.73698 76.7551 7.37575 75.2101 7.67359L67.9889 9.05969L64.1856 2.76001C62.6719 0.252809 59.4935 -0.694168 56.7942 0.55523C56.6042 0.643055 56.4211 0.748444 56.2617 0.86147L49.9941 5.23131L43.96 1.02414C42.6683 0.124509 41.0456 -0.203115 39.506 0.123745C37.9663 0.450605 36.6159 1.41286 35.8019 2.76153L32.0001 9.06046L24.7781 7.67359C23.2316 7.37728 21.615 7.73851 20.3431 8.6641C19.069 9.59046 18.2267 11.0186 18.0314 12.5811L17.1174 19.8842L9.54446 21.6537L9.18893 21.7698L9.0577 21.8271C6.30653 23.0314 4.93019 25.9594 5.78621 28.7881L7.92473 35.8538L1.98904 40.4756L1.64496 40.775L1.54806 40.8812C-0.443978 43.0592 -0.521798 46.3538 1.36267 48.5563L6.00975 54.119L2.2431 60.9609L2.0928 61.303L2.04932 61.4306C1.11013 64.2402 2.38959 67.2934 5.02479 68.5314L11.6807 71.6579L11.0574 78.9909C10.9239 80.5618 11.4518 82.1342 12.5047 83.3042C13.5575 84.4749 15.0643 85.1645 16.6391 85.1966L23.99 85.3432L26.4009 92.2951C26.9166 93.7843 28.0374 95.0062 29.4748 95.6462C30.9122 96.2869 32.5685 96.3037 34.0212 95.692L40.7968 92.8335L46.1153 98.5146L46.3938 98.7628L46.5014 98.843C47.5519 99.6197 48.7795 100 49.9956 100C51.5345 100 53.0543 99.3906 54.1659 98.203L59.1937 92.8335L65.9701 95.6928C67.4197 96.3037 69.0753 96.2869 70.5127 95.647C71.9516 95.0062 73.0723 93.7843 73.5881 92.2959L75.9998 85.3432L83.7757 85.1882L84.1449 85.1477L84.2777 85.121C87.1769 84.5292 89.1781 81.8937 88.9316 78.9916L88.3091 71.6579L94.9657 68.5314C96.3901 67.8624 97.4865 66.6191 97.9732 65.1199C98.4592 63.6216 98.3028 61.9705 97.5429 60.5905L93.98 54.119L98.6278 48.5563C99.6433 47.3687 100.132 45.797 99.9691 44.2391ZM88.4372 51.6034C87.5164 52.6916 87.3592 54.2564 88.0481 55.5066L92.3305 63.2856L84.2975 67.059C82.9952 67.6714 82.2025 69.0468 82.3238 70.4818L83.0753 79.3315L74.2038 79.5086C72.7656 79.5377 71.4816 80.4709 71.0101 81.8318L68.1003 90.2225L59.9246 86.7729C58.5986 86.2139 57.0467 86.543 56.0618 87.5946L49.9941 94.0753L43.9264 87.5938C43.2619 86.8836 42.338 86.5033 41.3996 86.5033C40.9487 86.5033 40.4947 86.5911 40.0652 86.7729L31.888 90.2225L28.9789 81.8341C28.5081 80.4724 27.2241 79.5377 25.7844 79.5086L16.9122 79.3315L17.6637 70.4818C17.7858 69.0468 16.9923 67.6714 15.69 67.059L7.6577 63.2856L11.9401 55.5074C12.6298 54.2557 12.4719 52.6916 11.5502 51.6026L5.91362 44.8554L12.8198 39.4775C13.9504 38.6046 14.4311 37.1047 14.0161 35.7377L11.4434 27.2378L20.0853 25.2171C21.4853 24.8895 22.5465 23.7103 22.7266 22.2807L23.8298 13.4677L32.5456 15.141C33.9586 15.4113 35.4067 14.7652 36.1513 13.5334L40.7396 5.93161L48.0204 11.0071C49.2014 11.8304 50.7883 11.8311 51.9686 11.0071L59.2494 5.93085L63.8385 13.5311C64.5816 14.7645 66.0327 15.4113 67.4456 15.1402L76.16 13.467L77.2632 22.2792C77.4417 23.708 78.503 24.8887 79.9053 25.2171L88.5463 27.2371L85.9729 35.7369C85.5587 37.107 86.0401 38.6061 87.1707 39.4783L94.0738 44.8585L88.4372 51.6034Z" fill="#5A6E79"/>
<path d="M50.3054 25.0794C36.5747 25.0794 25.4037 36.2606 25.4037 50.0055C25.4037 63.7497 36.5747 74.9317 50.3054 74.9317C64.0368 74.9317 75.2078 63.7497 75.2078 50.0055C75.2078 36.2606 64.0361 25.0794 50.3054 25.0794ZM50.3054 69.0619C39.8081 69.0619 31.2669 60.5132 31.2669 50.0055C31.2669 39.4972 39.8081 30.9484 50.3054 30.9484C60.8035 30.9484 69.3438 39.4972 69.3438 50.0055C69.3438 60.5132 60.8035 69.0619 50.3054 69.0619Z" fill="#5A6E79"/>
<path d="M57.4633 42.2663L45.8964 53.8439L42.7576 50.7013C41.6124 49.5557 39.7562 49.5557 38.6118 50.7013C37.4666 51.8476 37.4666 53.7056 38.6118 54.8519L43.8234 60.0687C44.3956 60.6422 45.1464 60.9286 45.8964 60.9286C46.6463 60.9286 47.3971 60.6422 47.9693 60.0687L61.6091 46.4162C62.7536 45.2699 62.7536 43.4118 61.6091 42.2663C60.464 41.12 58.6077 41.12 57.4633 42.2663Z" fill="#5A6E79"/>
</svg>
