<svg width="100" height="100" viewBox="0 0 100 100" fill="none" xmlns="http://www.w3.org/2000/svg">
<path d="M99.1418 77.2485L83.2963 61.4012L82.9699 57.3848L87.3369 54.7235C88.572 53.9707 89.073 52.4293 88.5164 51.0942L86.5486 46.3743L89.8791 42.4938C90.8211 41.3963 90.8213 39.7756 89.8795 38.6778L86.5484 34.7959L88.5164 30.0758C89.073 28.7409 88.572 27.1993 87.3369 26.4465L82.9699 23.7852L83.384 18.6887C83.5011 17.2469 82.5482 15.9354 81.141 15.601L76.166 14.4196L74.9842 9.44321C74.65 8.0356 73.3357 7.08345 71.8966 7.20005L66.7986 7.61411L64.1371 3.24692C63.3843 2.01138 61.842 1.51118 60.5074 2.06763L55.7879 4.03677L51.9082 0.706494C50.8107 -0.235498 49.1894 -0.235498 48.092 0.706494L44.2119 4.03677L39.4922 2.06782C38.1568 1.51099 36.6154 2.01177 35.8625 3.24712L33.2009 7.61431L28.1029 7.20024C26.6611 7.08481 25.3498 8.03579 25.0154 9.44341L23.8336 14.4198L18.8586 15.6012C17.4513 15.9356 16.4984 17.2471 16.6156 18.6889L17.0297 23.7854L12.6627 26.4467C11.4275 27.1995 10.9265 28.7409 11.4832 30.076L13.4511 34.7961L10.1201 38.678C9.17829 39.7756 9.17848 41.3963 10.1205 42.494L13.4509 46.3745L11.4832 51.0944C10.9265 52.4293 11.4275 53.9709 12.6627 54.7237L17.0297 57.385L16.7033 61.4014L0.858168 77.2485C0.140199 77.9664 -0.154918 79.0049 0.0784805 79.9932C0.311684 80.9815 1.0402 81.7784 2.00329 82.0995L13.9267 86.0735L17.9007 97.9969C18.2218 98.9602 19.0187 99.6885 20.007 99.9217C20.9953 100.155 22.0338 99.86 22.7517 99.142L44.5078 77.3877L48.0916 80.4649C49.1838 81.4026 50.805 81.4123 51.9086 80.4649L55.4924 77.3877L77.2484 99.1418C77.9664 99.8598 79.0049 100.155 79.9931 99.9215C80.9814 99.6883 81.7783 98.9598 82.0994 97.9967L86.0734 86.0733L97.9968 82.0993C98.9601 81.7782 99.6884 80.9813 99.9217 79.993C100.155 79.0049 99.8597 77.9663 99.1418 77.2485V77.2485ZM21.9615 91.6469L19.022 82.8293C18.7304 81.9545 18.0437 81.268 17.1691 80.9764L8.35348 78.0381L20.4457 65.9457L23.8338 66.7506L25.0158 71.727C25.3502 73.1346 26.6656 74.0868 28.1033 73.9702L33.2013 73.5561L35.7957 77.8133L21.9615 91.6469ZM62.7349 68.9653L60.4427 72.7266L56.3779 71.0307C55.3566 70.6045 54.1816 70.7905 53.3414 71.5118L50 74.3807L46.6586 71.5118C45.4838 70.503 44.1623 70.8053 43.622 71.0307L39.5572 72.7266L37.265 68.9653C36.6892 68.0204 35.6318 67.4807 34.5263 67.5698L30.1355 67.9264L29.1175 63.6405C28.8619 62.5635 28.0211 61.7229 26.9443 61.467L22.6597 60.4493L23.0164 56.0598C23.106 54.9565 22.566 53.8969 21.6207 53.3209L17.859 51.0286L19.5539 46.9635C19.9798 45.942 19.7939 44.7678 19.0728 43.928L16.2043 40.5858L19.073 37.2424C19.7935 36.4026 19.9797 35.2286 19.5537 34.2071L17.8588 30.142L21.6205 27.8497C22.5658 27.2735 23.1056 26.2139 23.0162 25.1108L22.6595 20.7213L26.9441 19.7038C28.0209 19.4481 28.8617 18.6073 29.1173 17.5303L30.1353 13.2444L34.5261 13.6008C35.6295 13.6913 36.6888 13.1506 37.2648 12.2053L39.557 8.44399L43.6218 10.1399C44.6429 10.5659 45.8179 10.3801 46.658 9.65923L50 6.79067L53.3418 9.65923C54.182 10.3803 55.3564 10.5659 56.3779 10.1399L60.4427 8.44399L62.7349 12.2053C63.3109 13.1504 64.3689 13.6917 65.4736 13.6008L69.8644 13.2444L70.8824 17.5303C71.1381 18.6073 71.9789 19.4481 73.0556 19.7038L77.3402 20.7213L76.9836 25.1108C76.8939 26.2141 77.434 27.2737 78.3793 27.8497L82.141 30.142L80.4461 34.2071C80.0201 35.2284 80.206 36.4026 80.9267 37.2424L83.7955 40.5858L80.9269 43.928C80.206 44.7678 80.0199 45.942 80.4459 46.9635L82.1408 51.0286L78.3791 53.3209C77.4338 53.8971 76.8939 54.9567 76.9834 56.0598L77.34 60.4493L73.0554 61.467C71.9787 61.7229 71.1379 62.5635 70.8822 63.6405L69.8642 67.9264L65.4734 67.5698C64.3703 67.4801 63.3109 68.02 62.7349 68.9653V68.9653ZM82.8308 80.9764C81.956 81.268 81.2695 81.9545 80.9779 82.8293L78.0384 91.6469L64.2047 77.8131L66.799 73.5559L71.897 73.97C73.3345 74.0866 74.6502 73.1344 74.9845 71.7268L76.1666 66.7504L79.5547 65.9455L91.6468 78.0379L82.8308 80.9764Z" fill="#5A6E79"/>
<path d="M74.0375 32.2385L65.1617 23.3628C64.0178 22.2186 62.1627 22.2186 61.0186 23.3628L46.8619 37.5194L40.5502 31.2079C39.4063 30.0637 37.5512 30.0637 36.407 31.2079L27.5313 40.0838C26.3871 41.228 26.3871 43.0829 27.5313 44.227L44.7904 61.4862C45.9346 62.6305 47.7899 62.6301 48.9336 61.4862L74.0377 36.3819C75.1819 35.2376 75.1819 33.3827 74.0375 32.2385ZM46.8619 55.2711L33.7459 42.1553L38.4785 37.4227L44.7902 43.7342C45.9342 44.8784 47.7893 44.8784 48.9334 43.7342L63.0901 29.5776L67.8227 34.3102L46.8619 55.2711Z" fill="#5A6E79"/>
</svg>
